<svg width="132" height="132" viewBox="0 0 132 132" fill="none" xmlns="http://www.w3.org/2000/svg">
<path d="M95.6172 47.35C99.8996 54.1507 101.711 62.218 100.747 70.1967C99.7838 78.1754 96.1037 85.5795 90.3253 91.1651C84.5469 96.7506 77.0223 100.177 69.0154 100.87C61.0086 101.562 53.0074 99.4781 46.3559 94.9674C39.7044 90.4567 34.8078 83.7943 32.4888 76.0995C30.1698 68.4046 30.5695 60.1461 33.6209 52.7112C36.6723 45.2763 42.1894 39.118 49.2454 35.2708C56.3015 31.4236 64.4666 30.1219 72.3691 31.5844L69.2081 48.6649C65.2276 47.9283 61.1149 48.584 57.5608 50.5218C54.0066 52.4596 51.2277 55.5615 49.6907 59.3065C48.1537 63.0514 47.9524 67.2112 49.1205 71.0871C50.2886 74.963 52.755 78.3188 56.1053 80.5908C59.4557 82.8628 63.4858 83.9126 67.5189 83.5639C71.5519 83.2151 75.342 81.489 78.2526 78.6756C81.1632 75.8621 83.0168 72.1327 83.5022 68.1139C83.9876 64.095 83.0751 60.0315 80.9181 56.606L95.6172 47.35Z" fill="#FF6400"/>
<path d="M121.85 30.8314C129.925 43.6556 133.341 58.8682 131.524 73.9138C129.707 88.9594 122.767 102.921 111.871 113.454C100.974 123.987 86.7848 130.449 71.6862 131.755C56.5876 133.06 41.4996 129.13 28.9568 120.624C16.414 112.118 7.18051 99.555 2.80745 85.0447C-1.56561 70.5344 -0.811805 54.9612 4.94223 40.9411C10.6963 26.921 21.1 15.3082 34.4057 8.0535C47.7113 0.798793 63.1084 -1.65583 78.0103 1.10198L74.8978 17.9203C63.8577 15.8771 52.4508 17.6956 42.5933 23.0703C32.7358 28.445 25.0282 37.0483 20.7653 47.4351C16.5024 57.8219 15.944 69.3593 19.1838 80.1093C22.4235 90.8593 29.2642 100.167 38.5565 106.468C47.8489 112.77 59.0268 115.682 70.2126 114.714C81.3984 113.747 91.9106 108.96 99.9832 101.156C108.056 93.3532 113.197 83.0095 114.543 71.8629C115.89 60.7164 113.359 49.4461 107.376 39.9453L121.85 30.8314Z" fill="#FF6400"/>
</svg>
